<svg width="53" height="53" viewBox="0 0 53 53" fill="none" xmlns="http://www.w3.org/2000/svg">
<path d="M26.0254 0C11.917 0 0 11.917 0 26.0254C0 40.1338 11.917 52.0508 26.0254 52.0508C40.1338 52.0508 52.0508 40.1338 52.0508 26.0254C52.0508 11.917 40.1338 0 26.0254 0ZM26.0254 13.0127C30.52 13.0127 33.833 16.3231 33.833 20.8203C33.833 25.3175 30.52 28.6279 26.0254 28.6279C21.5334 28.6279 18.2178 25.3175 18.2178 20.8203C18.2178 16.3231 21.5334 13.0127 26.0254 13.0127ZM12.7368 38.4447C15.0713 35.0094 18.9647 32.7191 23.4229 32.7191H28.6279C33.0887 32.7191 36.9795 35.0094 39.314 38.4447C35.9879 42.005 31.2695 44.2432 26.0254 44.2432C20.7813 44.2432 16.0629 42.005 12.7368 38.4447Z" fill="#C5C5C5"/>
</svg>
