<svg width="30" height="30" viewBox="0 0 30 30" fill="none" xmlns="http://www.w3.org/2000/svg">
<path d="M3.75 7.5V25C3.75 25.663 4.01339 26.2989 4.48223 26.7678C4.95107 27.2366 5.58696 27.5 6.25 27.5H23.75C24.413 27.5 25.0489 27.2366 25.5178 26.7678C25.9866 26.2989 26.25 25.663 26.25 25V7.5C26.25 6.83696 25.9866 6.20107 25.5178 5.73223C25.0489 5.26339 24.413 5 23.75 5H21.25V2.5H18.75V5H11.25V2.5H8.75V5H6.25C5.58696 5 4.95107 5.26339 4.48223 5.73223C4.01339 6.20107 3.75 6.83696 3.75 7.5ZM23.75 25H6.25V10H23.75V25Z" fill="black"/>
</svg>
