<svg width="24" height="24" viewBox="0 0 24 24" fill="none" xmlns="http://www.w3.org/2000/svg">
<rect opacity="0.01" width="24" height="24" fill="black"/>
<path fill-rule="evenodd" clip-rule="evenodd" d="M13.7617 11.9942L21.6217 4.13416C22.11 3.64625 22.11 2.85458 21.6217 2.36666C21.1333 1.87833 20.3425 1.87833 19.8542 2.36666L11.9942 10.2267L4.13375 2.36666C3.64542 1.87833 2.85458 1.87833 2.36625 2.36666C1.87792 2.85458 1.87792 3.64625 2.36625 4.13416L10.2267 11.9942L2.36625 19.8542C1.87792 20.3421 1.87792 21.1337 2.36625 21.6217C2.61042 21.8654 2.93042 21.9875 3.25 21.9875C3.56958 21.9875 3.88958 21.8654 4.13375 21.6212L11.9942 13.7612L19.8542 21.6212C20.0983 21.8654 20.4183 21.9875 20.7379 21.9875C21.0575 21.9875 21.3775 21.8654 21.6217 21.6212C22.11 21.1333 22.11 20.3417 21.6217 19.8537L13.7617 11.9942Z" fill="#161C18"/>
</svg>
