<svg width="211" height="211" viewBox="0 0 211 211" fill="none" xmlns="http://www.w3.org/2000/svg">
<g opacity="0.21">
<path d="M61.5413 114.292H149.458V96.7083H61.5413V114.292ZM105.5 193.417C93.3379 193.417 81.9087 191.109 71.2122 186.493C60.5156 181.878 51.2111 175.614 43.2986 167.701C35.3861 159.789 29.1221 150.484 24.5064 139.787C19.8908 129.091 17.583 117.662 17.583 105.5C17.583 93.3382 19.8908 81.909 24.5064 71.2125C29.1221 60.516 35.3861 51.2115 43.2986 43.299C51.2111 35.3865 60.5156 29.1224 71.2122 24.5068C81.9087 19.8911 93.3379 17.5833 105.5 17.5833C117.661 17.5833 129.091 19.8911 139.787 24.5068C150.484 29.1224 159.788 35.3865 167.701 43.299C175.613 51.2115 181.877 60.516 186.493 71.2125C191.109 81.909 193.416 93.3382 193.416 105.5C193.416 117.662 191.109 129.091 186.493 139.787C181.877 150.484 175.613 159.789 167.701 167.701C159.788 175.614 150.484 181.878 139.787 186.493C129.091 191.109 117.661 193.417 105.5 193.417ZM105.5 175.833C125.134 175.833 141.765 169.02 155.392 155.393C169.019 141.766 175.833 125.135 175.833 105.5C175.833 85.8653 169.019 69.2344 155.392 55.6073C141.765 41.9802 125.134 35.1667 105.5 35.1667C85.8649 35.1667 69.234 41.9802 55.607 55.6073C41.9799 69.2344 35.1663 85.8653 35.1663 105.5C35.1663 125.135 41.9799 141.766 55.607 155.393C69.234 169.02 85.8649 175.833 105.5 175.833Z" fill="#1D1B20"/>
</g>
</svg>
