<svg width="23" height="27" viewBox="0 0 23 27" fill="none" xmlns="http://www.w3.org/2000/svg">
<path d="M11.5 27C12.2913 27.001 13.0633 26.7416 13.7086 26.2577C14.3539 25.7738 14.8405 25.0896 15.1008 24.3H7.89922C8.15946 25.0896 8.64605 25.7738 9.29137 26.2577C9.93669 26.7416 10.7087 27.001 11.5 27ZM20.4444 16.9911V10.8C20.4444 6.45705 17.6525 2.79855 13.8703 1.6983C13.4959 0.702 12.581 0 11.5 0C10.419 0 9.50411 0.702 9.12972 1.6983C5.3475 2.7999 2.55556 6.45705 2.55556 10.8V16.9911L0.37439 19.2955C0.255502 19.4207 0.161218 19.5695 0.0969646 19.7333C0.0327113 19.8971 -0.000242074 20.0727 1.33869e-06 20.25L1.33869e-06 21.6C1.33869e-06 21.958 0.134624 22.3014 0.374254 22.5546C0.613883 22.8078 0.938891 22.95 1.27778 22.95H21.7222C22.0611 22.95 22.3861 22.8078 22.6257 22.5546C22.8654 22.3014 23 21.958 23 21.6V20.25C23.0002 20.0727 22.9673 19.8971 22.903 19.7333C22.8388 19.5695 22.7445 19.4207 22.6256 19.2955L20.4444 16.9911Z" fill="#C5C5C5"/>
</svg>
