<svg width="125" height="125" viewBox="0 0 125 125" fill="none" xmlns="http://www.w3.org/2000/svg">
<path d="M62.5 0C28.6187 0 0 28.6187 0 62.5C0 96.3812 28.6187 125 62.5 125C96.3812 125 125 96.3812 125 62.5C125 28.6187 96.3812 0 62.5 0ZM62.5 31.25C73.2937 31.25 81.25 39.2 81.25 50C81.25 60.8 73.2937 68.75 62.5 68.75C51.7125 68.75 43.75 60.8 43.75 50C43.75 39.2 51.7125 31.25 62.5 31.25ZM30.5875 92.325C36.1938 84.075 45.5438 78.575 56.25 78.575H68.75C79.4625 78.575 88.8063 84.075 94.4125 92.325C86.425 100.875 75.0938 106.25 62.5 106.25C49.9062 106.25 38.575 100.875 30.5875 92.325Z" fill="#3D577E"/>
</svg>
