<svg width="154" height="154" viewBox="0 0 154 154" fill="none" xmlns="http://www.w3.org/2000/svg">
<path fill-rule="evenodd" clip-rule="evenodd" d="M64.969 105.875C75.818 105.875 86.2226 101.565 93.894 93.8938C101.565 86.2224 105.875 75.8178 105.875 64.9687C105.875 54.1197 101.565 43.7151 93.894 36.0437C86.2226 28.3723 75.818 24.0625 64.969 24.0625C54.1199 24.0625 43.7153 28.3723 36.0439 36.0437C28.3724 43.7151 24.0627 54.1197 24.0627 64.9687C24.0627 75.8178 28.3724 86.2224 36.0439 93.8938C43.7153 101.565 54.1199 105.875 64.969 105.875ZM64.969 120.312C77.1568 120.332 89.0074 116.311 98.6661 108.878L124.836 135.039C125.497 135.748 126.294 136.317 127.18 136.711C128.065 137.106 129.021 137.318 129.99 137.335C130.96 137.352 131.922 137.174 132.821 136.811C133.72 136.448 134.537 135.907 135.222 135.222C135.908 134.536 136.448 133.72 136.811 132.821C137.174 131.922 137.353 130.959 137.335 129.99C137.318 129.021 137.106 128.065 136.712 127.18C136.317 126.294 135.748 125.497 135.039 124.836L108.878 98.6659C116.485 88.7552 120.515 76.5624 120.312 64.0707C120.109 51.5789 115.686 39.5233 107.762 29.8647C99.8372 20.2062 88.8779 13.513 76.6664 10.8739C64.4549 8.23477 51.7098 9.80506 40.5041 15.3293C29.2984 20.8535 20.2915 30.0067 14.9485 41.2999C9.60544 52.5931 8.24063 65.3619 11.0761 77.5293C13.9115 89.6966 20.7803 100.547 30.5653 108.315C40.3502 116.082 52.4756 120.311 64.969 120.312ZM45.7189 57.75C43.8044 57.75 41.9683 58.5105 40.6145 59.8643C39.2607 61.2181 38.5002 63.0542 38.5002 64.9687C38.5002 66.8833 39.2607 68.7194 40.6145 70.0732C41.9683 71.427 43.8044 72.1875 45.7189 72.1875H84.219C86.1335 72.1875 87.9696 71.427 89.3234 70.0732C90.6771 68.7194 91.4377 66.8833 91.4377 64.9687C91.4377 63.0542 90.6771 61.2181 89.3234 59.8643C87.9696 58.5105 86.1335 57.75 84.219 57.75H45.7189Z" fill="black"/>
</svg>
